<?xml version="1.0" encoding="UTF-8"?> <svg xmlns="http://www.w3.org/2000/svg" data-v-fde0c5aa="" viewBox="0 0 300 300" class="iconLeft"><!----><defs data-v-fde0c5aa=""><!----></defs><rect data-v-fde0c5aa="" fill="transparent" x="0" y="0" width="300px" height="300px" class="logo-background-square"></rect><defs data-v-fde0c5aa=""><!----></defs><g data-v-fde0c5aa="" id="d9c67892-1df1-4ef8-89fc-b1c760e1e17c" fill="#000000" transform="matrix(4.424071311950684,0,0,4.424071311950684,103.78603532066964,112.39539548646877)"><path d="M4.76 4.58L4.76 4.58Q5.78 4.58 6.59 5.00L6.59 5.00L6.59 5.00Q7.39 5.42 7.85 6.22L7.85 6.22L7.85 6.22Q8.30 7.03 8.30 8.15L8.30 8.15L8.30 11.91L8.30 11.91Q8.30 12.10 8.18 12.21L8.18 12.21L8.18 12.21Q8.06 12.33 7.88 12.33L7.88 12.33L7.88 12.33Q7.70 12.33 7.58 12.21L7.58 12.21L7.58 12.21Q7.46 12.10 7.46 11.91L7.46 11.91L7.46 8.15L7.46 8.15Q7.46 6.82 6.71 6.12L6.71 6.12L6.71 6.12Q5.96 5.42 4.76 5.42L4.76 5.42L4.76 5.42Q4.02 5.42 3.41 5.70L3.41 5.70L3.41 5.70Q2.80 5.99 2.45 6.50L2.45 6.50L2.45 6.50Q2.10 7.01 2.10 7.63L2.10 7.63L2.10 11.91L2.10 11.91Q2.10 12.10 1.99 12.21L1.99 12.21L1.99 12.21Q1.88 12.33 1.68 12.33L1.68 12.33L1.68 12.33Q1.50 12.33 1.38 12.21L1.38 12.21L1.38 12.21Q1.26 12.10 1.26 11.91L1.26 11.91L1.26 5.10L1.26 5.10Q1.26 4.90 1.38 4.79L1.38 4.79L1.38 4.79Q1.50 4.68 1.68 4.68L1.68 4.68L1.68 4.68Q1.88 4.68 1.99 4.79L1.99 4.79L1.99 4.79Q2.10 4.90 2.10 5.10L2.10 5.10L2.10 5.82L2.10 5.82Q2.58 5.24 3.26 4.91L3.26 4.91L3.26 4.91Q3.95 4.58 4.76 4.58L4.76 4.58ZM13.86 4.61L13.86 4.61Q14.88 4.61 15.69 5.09L15.69 5.09L15.69 5.09Q16.49 5.57 16.94 6.43L16.94 6.43L16.94 6.43Q17.39 7.28 17.39 8.37L17.39 8.37L17.39 8.37Q17.39 8.55 17.28 8.66L17.28 8.66L17.28 8.66Q17.16 8.76 16.98 8.76L16.98 8.76L11.12 8.76L11.12 8.76Q11.16 9.59 11.55 10.24L11.55 10.24L11.55 10.24Q11.94 10.89 12.60 11.26L12.60 11.26L12.60 11.26Q13.26 11.62 14.07 11.62L14.07 11.62L14.07 11.62Q14.62 11.62 15.17 11.43L15.17 11.43L15.17 11.43Q15.72 11.24 16.04 10.93L16.04 10.93L16.04 10.93Q16.18 10.82 16.34 10.82L16.34 10.82L16.34 10.82Q16.49 10.82 16.59 10.91L16.59 10.91L16.59 10.91Q16.74 11.03 16.74 11.20L16.74 11.20L16.74 11.20Q16.74 11.34 16.62 11.47L16.62 11.47L16.62 11.47Q16.17 11.87 15.45 12.14L15.45 12.14L15.45 12.14Q14.73 12.40 14.07 12.40L14.07 12.40L14.07 12.40Q12.96 12.40 12.10 11.91L12.10 11.91L12.10 11.91Q11.24 11.41 10.75 10.52L10.75 10.52L10.75 10.52Q10.26 9.63 10.26 8.51L10.26 8.51L10.26 8.51Q10.26 7.38 10.72 6.49L10.72 6.49L10.72 6.49Q11.17 5.60 11.99 5.10L11.99 5.10L11.99 5.10Q12.81 4.61 13.86 4.61L13.86 4.61ZM13.86 5.39L13.86 5.39Q12.77 5.39 12.02 6.12L12.02 6.12L12.02 6.12Q11.27 6.85 11.13 8.04L11.13 8.04L16.58 8.04L16.58 8.04Q16.48 6.85 15.74 6.12L15.74 6.12L15.74 6.12Q14.99 5.39 13.86 5.39L13.86 5.39ZM27.78 4.68L27.78 4.68Q27.96 4.68 28.06 4.79L28.06 4.79L28.06 4.79Q28.15 4.90 28.15 5.07L28.15 5.07L28.15 5.07Q28.15 5.17 28.11 5.28L28.11 5.28L25.86 12.07L25.86 12.07Q25.82 12.19 25.71 12.26L25.71 12.26L25.71 12.26Q25.61 12.33 25.45 12.33L25.45 12.33L25.45 12.33Q25.31 12.33 25.20 12.26L25.20 12.26L25.20 12.26Q25.09 12.19 25.06 12.07L25.06 12.07L23.16 6.15L21.31 12.07L21.31 12.07Q21.21 12.33 20.92 12.33L20.92 12.33L20.92 12.33Q20.78 12.33 20.67 12.26L20.67 12.26L20.67 12.26Q20.57 12.19 20.52 12.07L20.52 12.07L18.26 5.28L18.26 5.28Q18.23 5.11 18.23 5.05L18.23 5.05L18.23 5.05Q18.23 4.68 18.58 4.68L18.58 4.68L18.58 4.68Q18.70 4.68 18.81 4.74L18.81 4.74L18.81 4.74Q18.91 4.80 18.97 4.93L18.97 4.93L20.94 10.89L22.76 5.01L22.76 5.01Q22.81 4.86 22.92 4.77L22.92 4.77L22.92 4.77Q23.03 4.68 23.18 4.68L23.18 4.68L23.18 4.68Q23.49 4.68 23.60 5.01L23.60 5.01L25.44 10.78L27.38 4.93L27.38 4.93Q27.50 4.68 27.78 4.68L27.78 4.68ZM32.31 4.59L32.31 4.59Q34.08 4.59 34.99 5.85L34.99 5.85L34.99 5.85Q35.07 5.95 35.07 6.09L35.07 6.09L35.07 6.09Q35.07 6.29 34.85 6.41L34.85 6.41L34.85 6.41Q34.71 6.47 34.64 6.47L34.64 6.47L34.64 6.47Q34.43 6.47 34.29 6.29L34.29 6.29L34.29 6.29Q33.57 5.38 32.28 5.38L32.28 5.38L32.28 5.38Q31.43 5.38 30.93 5.75L30.93 5.75L30.93 5.75Q30.42 6.12 30.42 6.66L30.42 6.66L30.42 6.66Q30.42 7.22 30.91 7.56L30.91 7.56L30.91 7.56Q31.39 7.90 32.52 8.06L32.52 8.06L32.52 8.06Q34.01 8.27 34.66 8.86L34.66 8.86L34.66 8.86Q35.31 9.44 35.31 10.26L35.31 10.26L35.31 10.26Q35.31 10.91 34.90 11.40L34.90 11.40L34.90 11.40Q34.48 11.89 33.80 12.15L33.80 12.15L33.80 12.15Q33.11 12.42 32.30 12.42L32.30 12.42L32.30 12.42Q31.49 12.42 30.72 12.13L30.72 12.13L30.72 12.13Q29.95 11.84 29.44 11.26L29.44 11.26L29.44 11.26Q29.34 11.14 29.34 11.00L29.34 11.00L29.34 11.00Q29.34 10.81 29.53 10.68L29.53 10.68L29.53 10.68Q29.61 10.61 29.76 10.61L29.76 10.61L29.76 10.61Q29.96 10.61 30.09 10.77L30.09 10.77L30.09 10.77Q30.79 11.62 32.34 11.62L32.34 11.62L32.34 11.62Q33.45 11.62 33.97 11.23L33.97 11.23L33.97 11.23Q34.50 10.84 34.50 10.22L34.50 10.22L34.50 10.22Q34.50 9.11 32.35 8.81L32.35 8.81L32.35 8.81Q31.00 8.61 30.30 8.06L30.30 8.06L30.30 8.06Q29.61 7.52 29.61 6.75L29.61 6.75L29.61 6.75Q29.61 5.73 30.36 5.16L30.36 5.16L30.36 5.16Q31.11 4.59 32.31 4.59L32.31 4.59Z"></path></g><defs data-v-fde0c5aa=""><linearGradient data-v-fde0c5aa="" gradientTransform="rotate(25)" id="fbedfe8c-209b-4a41-a3b1-2b544f9df702" x1="0%" y1="0%" x2="100%" y2="0%"><stop data-v-fde0c5aa="" offset="0%" stop-color="#0D2175" stop-opacity="1"></stop><stop data-v-fde0c5aa="" offset="100%" stop-color="#1F1EFB" stop-opacity="1"></stop></linearGradient></defs><g data-v-fde0c5aa="" id="f31af511-92b1-4f34-be87-dac461110f54" stroke="none" fill="url(#fbedfe8c-209b-4a41-a3b1-2b544f9df702)" transform="matrix(2.167706251144409,0,0,2.167706251144409,40,123.9864613125801)"><path d="M8.267 20.791C7.003 19.779 7.93 17 7.93 17H3.144l1.625 6c.127.551.68 1 1.231 1h2c1.615.049 2.092-1.748.267-3.209zM11 11v1c3.845 0 4.964-.925 4.964-.925L16 9.059S14.866 11 11 11z"></path><path d="M21.5 0c-.686 0-1.334.422-1.916 1.156C17.486 3.369 14.822 8 8 8H3c-1.656 0-3 1.344-3 3v2c0 1.656 1.344 3 3 3h5c6.644 0 9.182 3.535 10.963 5.905C19.686 23.225 20.559 24 21.5 24c2.482 0 4.5-5.373 4.5-12S23.982 0 21.5 0zM3 12c0-1.987 1.487-2 1.487-2H8v2H3zm14.285 5.063C15.6 15.67 13.296 14.457 10 14.104v-4.23c3.253-.419 5.596-1.835 7.339-3.36C17.131 8.061 17 9.878 17 12c0 1.932.108 3.61.285 5.063zm4.215 4.913c-.635-.375-1.916-2.729-2.35-6.976H20a3.001 3.001 0 0 0 0-6h-.85c.434-4.247 1.715-6.601 2.35-6.976C22.272 2.48 24 5.851 24 12s-1.728 9.52-2.5 9.976z"></path></g><!----></svg> 